<mxfile host="app.diagrams.net" modified="2023-03-25T18:56:35.041Z" agent="Mozilla/5.0 (Windows NT 10.0; Win64; x64) AppleWebKit/537.36 (KHTML, like Gecko) Chrome/111.0.0.0 Safari/537.36" etag="T3hxbMqXF72IAlut7Umq" version="21.1.1" type="device">
  <diagram id="UobAdjL9_YnMxOp4gsT4" name="Page-1">
    <mxGraphModel dx="989" dy="570" grid="1" gridSize="10" guides="1" tooltips="1" connect="1" arrows="1" fold="1" page="1" pageScale="1" pageWidth="1169" pageHeight="827" math="0" shadow="0">
      <root>
        <mxCell id="0" />
        <mxCell id="1" parent="0" />
        <mxCell id="ZuOUBEfFJ5gOZ-xWEpvL-1" style="edgeStyle=orthogonalEdgeStyle;rounded=0;orthogonalLoop=1;jettySize=auto;html=1;dashed=1;curved=1;endArrow=block;endFill=1;entryX=0.96;entryY=0.7;entryDx=0;entryDy=0;entryPerimeter=0;" edge="1" parent="1" source="ZuOUBEfFJ5gOZ-xWEpvL-19" target="ZuOUBEfFJ5gOZ-xWEpvL-2">
          <mxGeometry relative="1" as="geometry">
            <Array as="points">
              <mxPoint x="270" y="181" />
            </Array>
            <mxPoint x="260" y="240" as="sourcePoint" />
          </mxGeometry>
        </mxCell>
        <mxCell id="ZuOUBEfFJ5gOZ-xWEpvL-3" value="UserDTO" style="html=1;whiteSpace=wrap;fillColor=#ffe6cc;strokeColor=#d79b00;" vertex="1" parent="1">
          <mxGeometry x="630" y="90" width="120" height="60" as="geometry" />
        </mxCell>
        <mxCell id="ZuOUBEfFJ5gOZ-xWEpvL-4" value="UserPermissionDTO" style="html=1;whiteSpace=wrap;fillColor=#ffe6cc;strokeColor=#d79b00;" vertex="1" parent="1">
          <mxGeometry x="630" y="170" width="120" height="60" as="geometry" />
        </mxCell>
        <mxCell id="ZuOUBEfFJ5gOZ-xWEpvL-6" value="Models" style="shape=umlFrame;whiteSpace=wrap;html=1;pointerEvents=0;width=80;height=20;" vertex="1" parent="1">
          <mxGeometry x="590" y="50" width="200" height="270" as="geometry" />
        </mxCell>
        <mxCell id="ZuOUBEfFJ5gOZ-xWEpvL-7" value="Controllers" style="shape=umlFrame;whiteSpace=wrap;html=1;pointerEvents=0;width=80;height=20;" vertex="1" parent="1">
          <mxGeometry x="370" y="50" width="200" height="270" as="geometry" />
        </mxCell>
        <mxCell id="ZuOUBEfFJ5gOZ-xWEpvL-8" style="edgeStyle=orthogonalEdgeStyle;rounded=0;orthogonalLoop=1;jettySize=auto;html=1;endArrow=block;endFill=1;" edge="1" parent="1" source="ZuOUBEfFJ5gOZ-xWEpvL-9" target="ZuOUBEfFJ5gOZ-xWEpvL-3">
          <mxGeometry relative="1" as="geometry" />
        </mxCell>
        <mxCell id="ZuOUBEfFJ5gOZ-xWEpvL-27" style="edgeStyle=orthogonalEdgeStyle;rounded=0;orthogonalLoop=1;jettySize=auto;html=1;" edge="1" parent="1" source="ZuOUBEfFJ5gOZ-xWEpvL-9" target="ZuOUBEfFJ5gOZ-xWEpvL-26">
          <mxGeometry relative="1" as="geometry">
            <Array as="points">
              <mxPoint x="580" y="120" />
              <mxPoint x="580" y="280" />
            </Array>
          </mxGeometry>
        </mxCell>
        <mxCell id="ZuOUBEfFJ5gOZ-xWEpvL-9" value="UserController" style="html=1;whiteSpace=wrap;fillColor=#ffe6cc;strokeColor=#d79b00;" vertex="1" parent="1">
          <mxGeometry x="420" y="90" width="120" height="60" as="geometry" />
        </mxCell>
        <mxCell id="ZuOUBEfFJ5gOZ-xWEpvL-11" style="edgeStyle=orthogonalEdgeStyle;rounded=0;orthogonalLoop=1;jettySize=auto;html=1;endArrow=block;endFill=1;exitX=1;exitY=0.5;exitDx=0;exitDy=0;" edge="1" parent="1" source="ZuOUBEfFJ5gOZ-xWEpvL-9" target="ZuOUBEfFJ5gOZ-xWEpvL-4">
          <mxGeometry relative="1" as="geometry">
            <Array as="points">
              <mxPoint x="580" y="120" />
              <mxPoint x="580" y="200" />
            </Array>
            <mxPoint x="550" y="280" as="sourcePoint" />
          </mxGeometry>
        </mxCell>
        <mxCell id="ZuOUBEfFJ5gOZ-xWEpvL-20" style="edgeStyle=orthogonalEdgeStyle;rounded=0;orthogonalLoop=1;jettySize=auto;html=1;endArrow=block;endFill=1;" edge="1" parent="1" source="ZuOUBEfFJ5gOZ-xWEpvL-19" target="ZuOUBEfFJ5gOZ-xWEpvL-9">
          <mxGeometry relative="1" as="geometry" />
        </mxCell>
        <mxCell id="ZuOUBEfFJ5gOZ-xWEpvL-19" value="UserService" style="html=1;whiteSpace=wrap;fillColor=#fad7ac;strokeColor=#b46504;strokeWidth=2;" vertex="1" parent="1">
          <mxGeometry x="220" y="90" width="120" height="60" as="geometry" />
        </mxCell>
        <mxCell id="ZuOUBEfFJ5gOZ-xWEpvL-24" value="" style="group" vertex="1" connectable="0" parent="1">
          <mxGeometry y="20" width="200" height="230" as="geometry" />
        </mxCell>
        <mxCell id="ZuOUBEfFJ5gOZ-xWEpvL-2" value="" style="ellipse;shape=cloud;whiteSpace=wrap;html=1;" vertex="1" parent="ZuOUBEfFJ5gOZ-xWEpvL-24">
          <mxGeometry width="200" height="230" as="geometry" />
        </mxCell>
        <mxCell id="ZuOUBEfFJ5gOZ-xWEpvL-12" value="Other Services" style="ellipse;whiteSpace=wrap;html=1;dashed=1;fillColor=#f5f5f5;fontColor=#333333;strokeColor=#666666;" vertex="1" parent="ZuOUBEfFJ5gOZ-xWEpvL-24">
          <mxGeometry x="80" y="134" width="90" height="50" as="geometry" />
        </mxCell>
        <mxCell id="ZuOUBEfFJ5gOZ-xWEpvL-23" value="Gateway" style="ellipse;whiteSpace=wrap;html=1;dashed=1;fillColor=#f5f5f5;fontColor=#333333;strokeColor=#666666;" vertex="1" parent="ZuOUBEfFJ5gOZ-xWEpvL-24">
          <mxGeometry x="40" y="70" width="90" height="50" as="geometry" />
        </mxCell>
        <mxCell id="ZuOUBEfFJ5gOZ-xWEpvL-26" value="AdminDTO" style="html=1;whiteSpace=wrap;fillColor=#ffe6cc;strokeColor=#d79b00;" vertex="1" parent="1">
          <mxGeometry x="630" y="250" width="120" height="60" as="geometry" />
        </mxCell>
      </root>
    </mxGraphModel>
  </diagram>
</mxfile>
